<svg width="64" height="64" viewBox="0 0 64 64" fill="none" xmlns="http://www.w3.org/2000/svg">
<rect width="64" height="64" rx="32" fill="#D4AF37" fill-opacity="0.1"/>
<circle cx="32" cy="28" r="9.33333" stroke="#D4AF37" stroke-width="3"/>
<path d="M25.8015 36L24.9523 39.0973C24.1145 42.1531 23.6956 43.681 24.2546 44.5174C24.4505 44.8106 24.7133 45.0458 25.0183 45.2011C25.8885 45.6442 27.232 44.9441 29.9191 43.544C30.8132 43.0781 31.2602 42.8451 31.7352 42.7945C31.9113 42.7758 32.0887 42.7758 32.2648 42.7945C32.7398 42.8451 33.1868 43.0781 34.0809 43.5439C36.768 44.9441 38.1115 45.6442 38.9817 45.2011C39.2867 45.0458 39.5495 44.8106 39.7454 44.5174C40.3044 43.681 39.8855 42.1531 39.0477 39.0973L38.1985 36" stroke="#D4AF37" stroke-width="3" stroke-linecap="round"/>
</svg>
