<svg width="64" height="64" viewBox="0 0 64 64" fill="none" xmlns="http://www.w3.org/2000/svg">
<rect width="64" height="64" rx="32" fill="#D4AF37" fill-opacity="0.1"/>
<path d="M29.3333 42H34.6667M30.2222 45.3333H33.7778" stroke="#D4AF37" stroke-width="3" stroke-linecap="round"/>
<path d="M25.8808 34.2406L27.3528 35.6262C27.7658 36.0149 28 36.5569 28 37.124C28 37.976 28.6907 38.6667 29.5426 38.6667H34.4573C35.3093 38.6667 36 37.976 36 37.124C36 36.5569 36.2342 36.0149 36.6472 35.6262L38.1192 34.2406C40.1741 32.2916 41.3217 29.7312 41.3332 27.0692L41.3333 26.9574C41.3333 22.4092 37.1546 18.6667 32 18.6667C26.8453 18.6667 22.6667 22.4092 22.6667 26.9574L22.6667 27.0692C22.6783 29.7312 23.8258 32.2916 25.8808 34.2406Z" stroke="#D4AF37" stroke-width="3"/>
</svg>
