<svg width="64" height="64" viewBox="0 0 64 64" fill="none" xmlns="http://www.w3.org/2000/svg">
<rect width="64" height="64" rx="32" fill="#D4AF37" fill-opacity="0.1"/>
<path d="M27.949 41.2144L28.8776 40.0364L27.949 41.2144ZM32 23.3341L30.9193 24.3743C31.202 24.6681 31.5922 24.8341 32 24.8341C32.4078 24.8341 32.7979 24.6681 33.0807 24.3743L32 23.3341ZM36.051 41.2144L36.9796 42.3924L36.051 41.2144ZM27.949 41.2144L28.8776 40.0364C26.8271 38.42 24.6727 36.9048 22.9582 34.9743C21.2952 33.1016 20.1667 30.9565 20.1667 28.1827H18.6667H17.1667C17.1667 31.8928 18.7177 34.7173 20.7151 36.9663C22.661 39.1575 25.1478 40.9163 27.0203 42.3924L27.949 41.2144ZM18.6667 28.1827H20.1667C20.1667 25.502 21.6807 23.2798 23.707 22.3536C25.6387 21.4706 28.3033 21.6564 30.9193 24.3743L32 23.3341L33.0807 22.2939C29.6969 18.7783 25.6948 18.1464 22.4598 19.6251C19.3194 21.0606 17.1667 24.3796 17.1667 28.1827H18.6667ZM27.949 41.2144L27.0203 42.3924C27.6987 42.9272 28.4588 43.5235 29.2368 43.9782C30.0144 44.4325 30.9525 44.8333 32 44.8333V43.3333V41.8333C31.7141 41.8333 31.3189 41.7202 30.7504 41.388C30.1823 41.056 29.5836 40.593 28.8776 40.0364L27.949 41.2144ZM36.051 41.2144L36.9796 42.3924C38.8522 40.9163 41.339 39.1575 43.2849 36.9663C45.2822 34.7173 46.8333 31.8928 46.8333 28.1827H45.3333H43.8333C43.8333 30.9565 42.7048 33.1016 41.0417 34.9743C39.3273 36.9048 37.1729 38.42 35.1224 40.0364L36.051 41.2144ZM45.3333 28.1827H46.8333C46.8333 24.3796 44.6806 21.0606 41.5402 19.6251C38.3052 18.1464 34.303 18.7783 30.9193 22.2939L32 23.3341L33.0807 24.3743C35.6967 21.6564 38.3612 21.4706 40.293 22.3536C42.3193 23.2798 43.8333 25.502 43.8333 28.1827H45.3333ZM36.051 41.2144L35.1224 40.0364C34.4164 40.593 33.8176 41.056 33.2496 41.388C32.681 41.7202 32.2859 41.8333 32 41.8333V43.3333V44.8333C33.0475 44.8333 33.9856 44.4325 34.7632 43.9782C35.5412 43.5235 36.3013 42.9272 36.9796 42.3924L36.051 41.2144Z" fill="#D4AF37"/>
</svg>
