<svg width="77" height="77" viewBox="0 0 77 77" fill="none" xmlns="http://www.w3.org/2000/svg">
<path d="M25.7738 11.7356C26.8837 8.92147 30.8663 8.92147 31.9762 11.7356L35.4156 20.4563C35.7545 21.3155 36.4345 21.9955 37.2937 22.3344L46.0144 25.7738C48.8285 26.8837 48.8285 30.8663 46.0144 31.9762L37.2937 35.4156C36.4345 35.7545 35.7545 36.4345 35.4156 37.2937L31.9762 46.0144C30.8663 48.8285 26.8837 48.8285 25.7738 46.0144L22.3344 37.2937C21.9955 36.4345 21.3155 35.7545 20.4563 35.4156L11.7356 31.9762C8.92147 30.8663 8.92147 26.8837 11.7356 25.7738L20.4563 22.3344C21.3155 21.9955 21.9955 21.3155 22.3344 20.4563L25.7738 11.7356Z" stroke="#C9A961" stroke-width="2"/>
<path d="M52.9005 42.8252C53.4878 41.336 55.5955 41.336 56.1828 42.8252L58.7514 49.338C58.9307 49.7927 59.2906 50.1526 59.7453 50.3319L66.2581 52.9005C67.7473 53.4878 67.7473 55.5955 66.2581 56.1828L59.7453 58.7514C59.2906 58.9307 58.9307 59.2906 58.7514 59.7453L56.1828 66.2581C55.5955 67.7473 53.4878 67.7473 52.9005 66.2581L50.3319 59.7453C50.1526 59.2906 49.7927 58.9307 49.338 58.7514L42.8252 56.1828C41.336 55.5955 41.336 53.4878 42.8252 52.9005L49.338 50.3319C49.7927 50.1526 50.1526 49.7927 50.3319 49.338L52.9005 42.8252Z" stroke="#C9A961" stroke-width="2"/>
</svg>
