<svg width="56" height="56" viewBox="0 0 56 56" fill="none" xmlns="http://www.w3.org/2000/svg">
<rect width="56" height="56" rx="28" fill="url(#paint0_linear_1_2141)"/>
<path d="M23.3723 18.2675C23.7759 17.2442 25.2241 17.2442 25.6277 18.2675L26.8784 21.4387C27.0016 21.7511 27.2489 21.9984 27.5613 22.1216L30.7325 23.3723C31.7558 23.7759 31.7558 25.2241 30.7325 25.6277L27.5613 26.8784C27.2489 27.0016 27.0016 27.2489 26.8784 27.5613L25.6277 30.7325C25.2241 31.7558 23.7759 31.7558 23.3723 30.7325L22.1216 27.5613C21.9984 27.2489 21.7511 27.0016 21.4387 26.8784L18.2675 25.6277C17.2442 25.2241 17.2442 23.7759 18.2675 23.3723L21.4387 22.1216C21.7511 21.9984 21.9984 21.7511 22.1216 21.4387L23.3723 18.2675Z" stroke="#0F172A" stroke-width="3"/>
<path d="M33.2366 29.5728C33.4501 29.0313 34.2165 29.0313 34.4301 29.5728L35.3642 31.9411C35.4294 32.1064 35.5602 32.2373 35.7256 32.3025L38.0939 33.2365C38.6354 33.4501 38.6354 34.2165 38.0939 34.4301L35.7256 35.3641C35.5602 35.4293 35.4294 35.5602 35.3642 35.7256L34.4301 38.0938C34.2165 38.6354 33.4501 38.6354 33.2366 38.0938L32.3025 35.7256C32.2373 35.5602 32.1064 35.4293 31.9411 35.3641L29.5728 34.4301C29.0313 34.2165 29.0313 33.4501 29.5728 33.2365L31.9411 32.3025C32.1064 32.2373 32.2373 32.1064 32.3025 31.9411L33.2366 29.5728Z" stroke="#0F172A" stroke-width="3"/>
<defs>
<linearGradient id="paint0_linear_1_2141" x1="56" y1="28" x2="0" y2="28" gradientUnits="userSpaceOnUse">
<stop offset="0.654525" stop-color="#C9A961"/>
<stop offset="1" stop-color="#D4AF37"/>
</linearGradient>
</defs>
</svg>
