<svg width="89" height="40" viewBox="0 0 89 40" fill="none" xmlns="http://www.w3.org/2000/svg">
<path d="M83.5299 0C83.6639 2.85834 86.0233 5.13462 88.9148 5.13462C88.9432 5.13462 88.9716 5.13256 89 5.13212V15.0614C87.2985 15.0615 85.9193 16.4408 85.9192 18.1422C85.9192 19.8436 87.2985 21.2229 89 21.2229V33.3771C88.9716 33.3766 88.9432 33.3751 88.9148 33.3751C85.9372 33.3751 83.5234 35.7889 83.5234 38.7664C83.5234 38.8525 83.5259 38.9381 83.5299 39.0231H27.5966L26.0156 36.9693L24.4346 39.0231H4.95712C4.96111 38.9381 4.96364 38.8525 4.96364 38.7664C4.96364 35.9329 2.77754 33.6117 0 33.3936V21.2229C1.70148 21.2229 3.08077 19.8437 3.08077 18.1422C3.08068 16.4408 1.70142 15.0614 0 15.0614V5.11557C2.69315 4.9041 4.82978 2.71597 4.95712 0H24.4346L26.0156 2.05385L27.5966 0H83.5299Z" fill="#F7F3E9"/>
<path d="M26.1865 3.08057V11.6383" stroke="#0F172A" stroke-width="1.02692" stroke-linecap="round" stroke-dasharray="2.05 2.05"/>
<path d="M26.1865 27.2134V35.7711" stroke="#0F172A" stroke-width="1.02692" stroke-linecap="round" stroke-dasharray="2.05 2.05"/>
<path d="M10.2691 32.3481L10.4403 33.3751L11.296 33.5462L10.4403 33.7174L10.2691 34.7443L10.098 33.7174L9.24219 33.5462L10.098 33.3751L10.2691 32.3481Z" fill="#D4AF37"/>
<path d="M17.9713 28.7539L18.1424 29.7808L18.9982 29.952L18.1424 30.1231L17.9713 31.1501L17.8001 30.1231L16.9443 29.952L17.8001 29.7808L17.9713 28.7539Z" fill="#D4AF37"/>
<path d="M4.62116 24.646L4.79232 25.6729L5.64809 25.8441L4.79232 26.0152L4.62116 27.0422L4.45001 26.0152L3.59424 25.8441L4.45001 25.6729L4.62116 24.646Z" fill="#D4AF37"/>
<path d="M4.62116 9.75586L4.79232 10.7828L5.64809 10.9539L4.79232 11.1251L4.62116 12.152L4.45001 11.1251L3.59424 10.9539L4.45001 10.7828L4.62116 9.75586Z" fill="#D4AF37"/>
<path d="M21.0518 7.70215L21.223 8.72907L22.0788 8.90023L21.223 9.07138L21.0518 10.0983L20.8807 9.07138L20.0249 8.90023L20.8807 8.72907L21.0518 7.70215Z" fill="#D4AF37"/>
<path d="M12.3233 4.62109L12.4945 5.64802L13.3502 5.81917L12.4945 5.99033L12.3233 7.01725L12.1522 5.99033L11.2964 5.81917L12.1522 5.64802L12.3233 4.62109Z" fill="#D4AF37"/>
<path d="M75.2223 3.59424L75.7785 6.37549L78.5598 6.93174L75.7785 7.488L75.2223 10.2692L74.666 7.488L71.8848 6.93174L74.666 6.37549L75.2223 3.59424Z" fill="#D4AF37"/>
<path d="M41.3336 31.3213L41.8899 34.1025L44.6711 34.6588L41.8899 35.215L41.3336 37.9963L40.7773 35.215L37.9961 34.6588L40.7773 34.1025L41.3336 31.3213Z" fill="#D4AF37"/>
<path d="M10.3966 25.1885C9.96939 25.1885 9.66085 25.0757 9.47099 24.8503C9.28112 24.6248 9.21585 24.3044 9.27519 23.8891L10.8772 13.7431C10.9365 13.3752 11.073 13.1023 11.2866 12.9243C11.5121 12.7344 11.8087 12.6395 12.1766 12.6395H18.46C18.7685 12.6395 19.0059 12.7047 19.172 12.8353C19.3381 12.9539 19.4212 13.1319 19.4212 13.3693C19.4212 13.7134 19.3203 13.9804 19.1186 14.1703C18.9287 14.3601 18.6736 14.4551 18.3532 14.4551H12.9598L12.408 17.9083H17.2496C17.5581 17.9083 17.7895 17.9735 17.9438 18.1041C18.1099 18.2227 18.193 18.4007 18.193 18.6381C18.193 18.9822 18.0921 19.2492 17.8904 19.4391C17.7005 19.6289 17.4454 19.7239 17.125 19.7239H12.1232L11.5358 23.3729H16.7512C17.0597 23.3729 17.2971 23.4381 17.4632 23.5687C17.6293 23.6873 17.7124 23.8653 17.7124 24.1027C17.7124 24.4468 17.6115 24.7138 17.4098 24.9037C17.2199 25.0935 16.9648 25.1885 16.6444 25.1885H10.3966ZM22.9432 25.3309C22.5872 25.3309 22.3024 25.2419 22.0888 25.0639C21.8871 24.8859 21.7388 24.6248 21.6438 24.2807L19.8816 17.8727C19.7986 17.576 19.7867 17.3149 19.846 17.0895C19.9054 16.8521 20.024 16.6682 20.202 16.5377C20.38 16.4071 20.6055 16.3419 20.8784 16.3419C21.187 16.3419 21.4243 16.419 21.5904 16.5733C21.7684 16.7157 21.899 16.9767 21.982 17.3565L23.3882 23.2305H22.8542L26.3431 17.1073C26.5092 16.8225 26.6813 16.6267 26.8593 16.5199C27.0373 16.4012 27.2687 16.3419 27.5535 16.3419C27.8383 16.3419 28.0578 16.4071 28.2121 16.5377C28.3782 16.6563 28.4672 16.8225 28.4791 17.0361C28.4909 17.2378 28.4257 17.4633 28.2833 17.7125L24.2427 24.4943C24.0647 24.7909 23.8689 25.0045 23.6553 25.1351C23.4535 25.2656 23.2162 25.3309 22.9432 25.3309ZM33.064 25.3665C32.1858 25.3665 31.4204 25.2063 30.7678 24.8859C30.127 24.5536 29.6286 24.0908 29.2726 23.4975C28.9166 22.9041 28.7385 22.2099 28.7385 21.4149C28.7385 20.4418 28.9403 19.5755 29.3438 18.8161C29.7591 18.0447 30.3287 17.4336 31.0526 16.9827C31.7764 16.5317 32.6071 16.3063 33.5446 16.3063C34.2684 16.3063 34.8736 16.4309 35.3602 16.6801C35.8467 16.9293 36.2324 17.2675 36.5172 17.6947C36.802 18.11 36.9918 18.5847 37.0868 19.1187C37.1817 19.6527 37.1995 20.1985 37.1402 20.7563C37.1164 21.0055 37.0512 21.1657 36.9444 21.2369C36.8376 21.3081 36.6892 21.3437 36.4994 21.3437H30.5186L30.6966 20.0621H35.6806L35.378 20.3291C35.4492 19.8544 35.4314 19.4331 35.3246 19.0653C35.2178 18.6855 35.016 18.3829 34.7194 18.1575C34.4346 17.932 34.037 17.8193 33.5268 17.8193C33.0046 17.8193 32.5656 17.9379 32.2096 18.1753C31.8536 18.4126 31.5747 18.7211 31.373 19.1009C31.1712 19.4687 31.0348 19.8663 30.9636 20.2935L30.8746 20.8453C30.7322 21.7115 30.8746 22.3998 31.3018 22.9101C31.729 23.4203 32.3816 23.6755 33.2598 23.6755C33.6158 23.6755 33.9836 23.6399 34.3634 23.5687C34.7431 23.4856 35.0872 23.3551 35.3958 23.1771C35.6212 23.0465 35.817 22.9931 35.9832 23.0169C36.1612 23.0287 36.2976 23.094 36.3926 23.2127C36.4994 23.3195 36.5646 23.4559 36.5884 23.6221C36.6121 23.7763 36.5824 23.9425 36.4994 24.1205C36.4282 24.2866 36.2976 24.4349 36.1078 24.5655C35.6924 24.8384 35.2 25.0401 34.6304 25.1707C34.0608 25.3012 33.5386 25.3665 33.064 25.3665ZM39.2938 25.3131C38.9497 25.3131 38.6946 25.2003 38.5284 24.9749C38.3742 24.7375 38.3267 24.4171 38.386 24.0137L39.4184 17.4455C39.4778 17.0776 39.6142 16.8047 39.8278 16.6267C40.0533 16.4368 40.344 16.3419 40.7 16.3419C41.0323 16.3419 41.2756 16.4427 41.4298 16.6445C41.5841 16.8462 41.6316 17.1488 41.5722 17.5523L41.3942 18.6915L41.323 18.2465C41.6197 17.6175 42.041 17.1369 42.5868 16.8047C43.1446 16.4724 43.7972 16.3063 44.5448 16.3063C45.1856 16.3063 45.7196 16.4368 46.1468 16.6979C46.5859 16.9589 46.8944 17.3624 47.0724 17.9083C47.2623 18.4423 47.292 19.1305 47.1614 19.9731L46.5028 24.2095C46.4554 24.5773 46.3189 24.8562 46.0934 25.0461C45.8798 25.2241 45.5891 25.3131 45.2212 25.3131C44.8771 25.3131 44.622 25.2003 44.4558 24.9749C44.2897 24.7375 44.2363 24.4171 44.2956 24.0137L44.9364 20.0087C45.0432 19.356 44.9898 18.8695 44.7762 18.5491C44.5745 18.2168 44.2007 18.0507 43.6548 18.0507C42.9547 18.0507 42.391 18.2702 41.9638 18.7093C41.5485 19.1483 41.2815 19.7476 41.1628 20.5071L40.5754 24.2095C40.4686 24.9452 40.0414 25.3131 39.2938 25.3131ZM52.7322 25.3665C51.9608 25.3665 51.326 25.2241 50.8276 24.9393C50.3292 24.6426 49.9791 24.2391 49.7774 23.7289C49.5875 23.2186 49.546 22.6253 49.6528 21.9489L50.258 18.1575H49.4748C49.19 18.1575 48.9645 18.0981 48.7984 17.9795C48.6441 17.8489 48.567 17.6709 48.567 17.4455C48.567 17.1369 48.6678 16.8996 48.8696 16.7335C49.0713 16.5673 49.3442 16.4843 49.6884 16.4843H50.525L50.792 14.7755C50.8513 14.4313 50.9818 14.1762 51.1836 14.0101C51.3853 13.8321 51.6582 13.7431 52.0024 13.7431C52.3821 13.7431 52.655 13.8499 52.8212 14.0635C52.9873 14.2771 53.0407 14.5797 52.9814 14.9713L52.75 16.4843H54.4944C54.791 16.4843 55.0165 16.5436 55.1708 16.6623C55.3369 16.7691 55.42 16.9411 55.42 17.1785C55.42 17.4633 55.325 17.7006 55.1352 17.8905C54.9572 18.0685 54.708 18.1575 54.3876 18.1575H52.483L51.8956 21.8065C51.8006 22.4235 51.8778 22.8685 52.127 23.1415C52.3762 23.4025 52.7262 23.5331 53.1772 23.5331C53.3908 23.5331 53.5569 23.5153 53.6756 23.4797C53.8061 23.4441 53.9307 23.4263 54.0494 23.4263C54.2155 23.4263 54.3342 23.4737 54.4054 23.5687C54.4884 23.6517 54.53 23.8119 54.53 24.0493C54.53 24.4527 54.4647 24.7316 54.3342 24.8859C54.2036 25.0401 54.0256 25.1529 53.8002 25.2241C53.6578 25.2715 53.4857 25.3071 53.284 25.3309C53.0822 25.3546 52.8983 25.3665 52.7322 25.3665ZM58.4066 25.3665C57.8726 25.3665 57.3861 25.2478 56.947 25.0105C56.5079 24.7613 56.1519 24.4349 55.879 24.0315C55.6179 23.628 55.4874 23.1771 55.4874 22.6787C55.4874 22.0616 55.6595 21.5632 56.0036 21.1835C56.3477 20.7919 56.8817 20.5011 57.6056 20.3113C58.3295 20.1214 59.2551 20.0265 60.3824 20.0265H61.8064L61.6106 21.3081H60.4892C59.7891 21.3081 59.2314 21.3437 58.816 21.4149C58.4007 21.4861 58.104 21.6107 57.926 21.7887C57.748 21.9667 57.659 22.2159 57.659 22.5363C57.659 22.9516 57.7955 23.272 58.0684 23.4975C58.3532 23.7229 58.6974 23.8357 59.1008 23.8357C59.4806 23.8357 59.8247 23.7585 60.1332 23.6043C60.4418 23.4381 60.7028 23.2067 60.9164 22.9101C61.13 22.6015 61.2665 22.2396 61.3258 21.8243L61.664 19.7061C61.759 19.1483 61.67 18.7211 61.397 18.4245C61.136 18.1278 60.6732 17.9795 60.0086 17.9795C59.617 17.9795 59.2373 18.021 58.8694 18.1041C58.5016 18.1753 58.1218 18.2999 57.7302 18.4779C57.5047 18.5728 57.303 18.6025 57.125 18.5669C56.947 18.5313 56.7987 18.4541 56.68 18.3355C56.5732 18.2049 56.5139 18.0566 56.502 17.8905C56.4901 17.7125 56.5376 17.5404 56.6444 17.3743C56.7631 17.2081 56.9529 17.0657 57.214 16.9471C57.7124 16.7216 58.2286 16.5614 58.7626 16.4665C59.3085 16.3597 59.8188 16.3063 60.2934 16.3063C61.2309 16.3063 61.9666 16.4783 62.5006 16.8225C63.0346 17.1666 63.3966 17.6353 63.5864 18.2287C63.7763 18.822 63.8119 19.4984 63.6932 20.2579L63.0702 24.2273C63.0228 24.5951 62.8922 24.874 62.6786 25.0639C62.4769 25.2419 62.204 25.3309 61.8598 25.3309C61.5394 25.3309 61.2962 25.23 61.13 25.0283C60.9758 24.8147 60.9283 24.5061 60.9876 24.1027L61.1656 22.9813L61.2902 23.3373C61.1241 23.8001 60.8868 24.1857 60.5782 24.4943C60.2816 24.7909 59.9434 25.0105 59.5636 25.1529C59.1958 25.2953 58.8101 25.3665 58.4066 25.3665ZM69.298 25.3665C68.5267 25.3665 67.8918 25.2241 67.3934 24.9393C66.895 24.6426 66.5449 24.2391 66.3432 23.7289C66.1533 23.2186 66.1118 22.6253 66.2186 21.9489L66.8238 18.1575H66.0406C65.7558 18.1575 65.5303 18.0981 65.3642 17.9795C65.2099 17.8489 65.1328 17.6709 65.1328 17.4455C65.1328 17.1369 65.2337 16.8996 65.4354 16.7335C65.6371 16.5673 65.9101 16.4843 66.2542 16.4843H67.0908L67.3578 14.7755C67.4171 14.4313 67.5477 14.1762 67.7494 14.0101C67.9511 13.8321 68.2241 13.7431 68.5682 13.7431C68.9479 13.7431 69.2209 13.8499 69.387 14.0635C69.5531 14.2771 69.6065 14.5797 69.5472 14.9713L69.3158 16.4843H71.0602C71.3569 16.4843 71.5824 16.5436 71.7366 16.6623C71.9028 16.7691 71.9858 16.9411 71.9858 17.1785C71.9858 17.4633 71.8909 17.7006 71.701 17.8905C71.523 18.0685 71.2738 18.1575 70.9534 18.1575H69.0488L68.4614 21.8065C68.3665 22.4235 68.4436 22.8685 68.6928 23.1415C68.942 23.4025 69.2921 23.5331 69.743 23.5331C69.9566 23.5331 70.1227 23.5153 70.2414 23.4797C70.3719 23.4441 70.4965 23.4263 70.6152 23.4263C70.7813 23.4263 70.9 23.4737 70.9712 23.5687C71.0543 23.6517 71.0958 23.8119 71.0958 24.0493C71.0958 24.4527 71.0306 24.7316 70.9 24.8859C70.7695 25.0401 70.5915 25.1529 70.366 25.2241C70.2236 25.2715 70.0515 25.3071 69.8498 25.3309C69.6481 25.3546 69.4641 25.3665 69.298 25.3665ZM73.8833 28.5349C73.5985 28.5349 73.379 28.4696 73.2247 28.3391C73.0705 28.2085 72.9874 28.0365 72.9755 27.8229C72.9637 27.6211 73.0289 27.4016 73.1713 27.1643L74.8623 24.3875L74.7199 25.3131L72.6729 17.8727C72.5899 17.576 72.578 17.3149 72.6373 17.0895C72.6967 16.8521 72.8153 16.6682 72.9933 16.5377C73.1832 16.4071 73.4146 16.3419 73.6875 16.3419C73.9961 16.3419 74.2275 16.419 74.3817 16.5733C74.5479 16.7157 74.6725 16.9767 74.7555 17.3565L76.1795 23.2483H75.6277L79.1165 17.1429C79.2827 16.8581 79.4547 16.6563 79.6327 16.5377C79.8107 16.4071 80.0421 16.3419 80.3269 16.3419C80.6117 16.3419 80.8313 16.4071 80.9855 16.5377C81.1517 16.6682 81.2407 16.8403 81.2525 17.0539C81.2763 17.2556 81.2169 17.4811 81.0745 17.7303L75.0937 27.7339C74.9276 28.0187 74.7555 28.2204 74.5775 28.3391C74.3995 28.4696 74.1681 28.5349 73.8833 28.5349Z" fill="#0F172A"/>
</svg>
